<?xml version="1.0" encoding="UTF-8"?>
<svg id="Layer_1" data-name="Layer 1" xmlns="http://www.w3.org/2000/svg" viewBox="0 0 120 120">
  <defs>
    <style>
      .cls-1 {
        fill: #fff;
        stroke-width: 0px;
      }
    </style>
  </defs>
  <path class="cls-1" d="M112.01,69.44c-1.09-1.09-25.12-25.16-26.24-26.14-.69-.61-1.43-1.23-2.26-1.6-2.69-1.2-5.33-1.01-7.69.83-1.1.86-38.94,38.67-39.52,39.28-.24.25-.63.26-.87.01-1.4-1.44-16.18-16.69-17.73-18.27-.47-.48-.46-.6.05-1.07.62-.56,22.78-22.79,24.24-24.27.49-.5.56-.49,1.06.02.86.88,4.26,4.26,5.06,5.1.54.58.53.61-.06,1.18-1.13,1.1-10.64,10.64-11.5,11.46-.57.55-.93,1.11-.9,1.99.1,2.88.18,11.54.21,11.83.18-.13,25.37-25.23,25.38-25.43.01-.19-18.79-19.13-18.92-19.17-.13-.04-29.31,28.99-32.1,31.75-1.73,1.72-2.59,3.83-2.64,6.22-.06,2.49.84,4.67,2.61,6.44,3.19,3.2,23.52,23.49,25.22,25.21.17.17.3.25.44.25.14,0,.28-.08.44-.25,1.25-1.28,43.08-43.12,43.58-43.58.2-.18.38-.58.78-.16.85.89,16.72,16.78,18.11,18.13.42.41.31.72,0,1.04-.92.94-1.87,1.85-2.8,2.78-.7.69-1.42,1.37-2.07,2.1-.58.66-.81.72-1.43.11-1.19-1.19-10.93-10.77-11.49-11.42-.48-.56-.64-.63-1.16-.11-2.79,2.79-21.95,21.91-24.52,24.49l-.65.66h.56c3.97.01,8.59.04,12.56.01l12.53-12.75c.56.52,10.61,10.77,12.29,12.49.48.49.46.48.96-.01.95-.95,17.77-17.74,18.43-18.42.24-.24.29-.49.02-.75Z"/>
</svg>